REM DIRINDEX 1\2\4,1\2\5,1\3\6,1\3\7,1\3\8
REM DIRNAME cjc092,folder01,folder02,folder03,folder04,folder05,folder06,folder07
TITLE ""
FILE "LEVEL1-012-midashigo.mp3" MP3
  TRACK 01 AUDIO
    TITLE "0:"
    INDEX 01 00:00:00
  TRACK 02 AUDIO
    TITLE "6:cjc092_0448"
    INDEX 01 00:00:07
  TRACK 03 AUDIO
    TITLE "0:"
    INDEX 01 00:03:10
  TRACK 04 AUDIO
    TITLE "7:cjc092_0449"
    INDEX 01 00:03:57
  TRACK 05 AUDIO
    TITLE "8:cjc092_0450"
    INDEX 01 00:04:68
  TRACK 06 AUDIO
    TITLE "0:"
    INDEX 01 00:08:42
  TRACK 07 AUDIO
    TITLE "7:cjc092_0451"
    INDEX 01 00:08:64
  TRACK 08 AUDIO
    TITLE "8:cjc092_0452"
    INDEX 01 00:10:25
  TRACK 09 AUDIO
    TITLE "0:"
    INDEX 01 00:12:14
  TRACK 10 AUDIO
    TITLE "7:cjc092_0453"
    INDEX 01 00:12:44
  TRACK 11 AUDIO
    TITLE "8:cjc092_0454"
    INDEX 01 00:13:67
  TRACK 12 AUDIO
    TITLE "0:"
    INDEX 01 00:16:22
  TRACK 13 AUDIO
    TITLE "7:cjc092_0455"
    INDEX 01 00:16:53
  TRACK 14 AUDIO
    TITLE "8:cjc092_0456"
    INDEX 01 00:17:74
  TRACK 15 AUDIO
    TITLE "0:"
    INDEX 01 00:22:48
  TRACK 16 AUDIO
    TITLE "7:cjc092_0457"
    INDEX 01 00:23:01
  TRACK 17 AUDIO
    TITLE "8:cjc092_0458"
    INDEX 01 00:24:25
  TRACK 18 AUDIO
    TITLE "0:"
    INDEX 01 00:26:58
  TRACK 19 AUDIO
    TITLE "7:cjc092_0459"
    INDEX 01 00:27:12
  TRACK 20 AUDIO
    TITLE "8:cjc092_0460"
    INDEX 01 00:28:55
  TRACK 21 AUDIO
    TITLE "0:"
    INDEX 01 00:30:46
  TRACK 22 AUDIO
    TITLE "7:cjc092_0461"
    INDEX 01 00:30:71
  TRACK 23 AUDIO
    TITLE "8:cjc092_0462"
    INDEX 01 00:32:29
  TRACK 24 AUDIO
    TITLE "0:"
    INDEX 01 00:35:17
  TRACK 25 AUDIO
    TITLE "7:cjc092_0463"
    INDEX 01 00:35:45
  TRACK 26 AUDIO
    TITLE "8:cjc092_0464"
    INDEX 01 00:36:74
  TRACK 27 AUDIO
    TITLE "0:"
    INDEX 01 00:38:63
  TRACK 28 AUDIO
    TITLE "7:cjc092_0465"
    INDEX 01 00:39:09
  TRACK 29 AUDIO
    TITLE "8:cjc092_0466"
    INDEX 01 00:40:44
  TRACK 30 AUDIO
    TITLE "0:"
    INDEX 01 00:43:25
  TRACK 31 AUDIO
    TITLE "7:cjc092_0467"
    INDEX 01 00:43:54
  TRACK 32 AUDIO
    TITLE "8:cjc092_0468"
    INDEX 01 00:45:02
  TRACK 33 AUDIO
    TITLE "0:"
    INDEX 01 00:47:70
  TRACK 34 AUDIO
    TITLE "7:cjc092_0469"
    INDEX 01 00:48:18
  TRACK 35 AUDIO
    TITLE "8:cjc092_0470"
    INDEX 01 00:49:41
  TRACK 36 AUDIO
    TITLE "0:"
    INDEX 01 00:50:58
  TRACK 37 AUDIO
    TITLE "7:cjc092_0471"
    INDEX 01 00:51:07
  TRACK 38 AUDIO
    TITLE "8:cjc092_0472"
    INDEX 01 00:52:47
  TRACK 39 AUDIO
    TITLE "0:"
    INDEX 01 00:53:57
  TRACK 40 AUDIO
    TITLE "7:cjc092_0473"
    INDEX 01 00:54:09
  TRACK 41 AUDIO
    TITLE "8:cjc092_0474"
    INDEX 01 00:55:38
  TRACK 42 AUDIO
    TITLE "0:"
    INDEX 01 00:58:13
  TRACK 43 AUDIO
    TITLE "7:cjc092_0475"
    INDEX 01 00:58:44
  TRACK 44 AUDIO
    TITLE "8:cjc092_0476"
    INDEX 01 01:00:04
  TRACK 45 AUDIO
    TITLE "0:"
    INDEX 01 01:01:27
  TRACK 46 AUDIO
    TITLE "7:cjc092_0477"
    INDEX 01 01:01:54
  TRACK 47 AUDIO
    TITLE "8:cjc092_0478"
    INDEX 01 01:03:08
  TRACK 48 AUDIO
    TITLE "0:"
    INDEX 01 01:05:05
  TRACK 49 AUDIO
    TITLE "7:cjc092_0479"
    INDEX 01 01:05:32
  TRACK 50 AUDIO
    TITLE "8:cjc092_0480"
    INDEX 01 01:06:61
  TRACK 51 AUDIO
    TITLE "0:"
    INDEX 01 01:08:09
  TRACK 52 AUDIO
    TITLE "7:cjc092_0481"
    INDEX 01 01:08:36
  TRACK 53 AUDIO
    TITLE "8:cjc092_0482"
    INDEX 01 01:09:67
  TRACK 54 AUDIO
    TITLE "0:"
    INDEX 01 01:12:68
  TRACK 55 AUDIO
    TITLE "7:cjc092_0483"
    INDEX 01 01:13:22
  TRACK 56 AUDIO
    TITLE "8:cjc092_0484"
    INDEX 01 01:14:49
  TRACK 57 AUDIO
    TITLE "0:"
    INDEX 01 01:18:15
  TRACK 58 AUDIO
    TITLE "7:cjc092_0485"
    INDEX 01 01:18:45
  TRACK 59 AUDIO
    TITLE "8:cjc092_0486"
    INDEX 01 01:19:74
  TRACK 60 AUDIO
    TITLE "0:"
    INDEX 01 01:21:29
  TRACK 61 AUDIO
    TITLE "7:cjc092_0487"
    INDEX 01 01:21:63
  TRACK 62 AUDIO
    TITLE "8:cjc092_0488"
    INDEX 01 01:23:18
  TRACK 63 AUDIO
    TITLE "0:"
    INDEX 01 01:24:61
